HIERARCHY
ROOT hip
{
  OFFSET 0 0 0
  CHANNELS 6 Xposition Yposition Zposition Zrotation Yrotation Xrotation
  JOINT abdomen
  {
    OFFSET 0 20.6881 -0.73152
    CHANNELS 3 Zrotation Xrotation Yrotation
    JOINT chest
    {
      OFFSET 0 11.7043 -0.48768
      CHANNELS 3 Zrotation Xrotation Yrotation
      JOINT neck
      {
        OFFSET 0 22.1894 -2.19456
        CHANNELS 3 Zrotation Xrotation Yrotation
        JOINT head
        {
          OFFSET -0.24384 7.07133 1.2192
          CHANNELS 3 Zrotation Xrotation Yrotation
          JOINT leftEye
          {
            OFFSET 4.14528 8.04674 8.04672
            CHANNELS 3 Zrotation Xrotation Yrotation
            End Site
            {
              OFFSET 1 0 0
            }
          }
          JOINT rightEye
          {
            OFFSET -3.6576 8.04674 8.04672
            CHANNELS 3 Zrotation Xrotation Yrotation
            End Site
            {
              OFFSET 1 0 0
            }
          }
        }
      }
      JOINT rCollar
      {
        OFFSET -2.68224 19.2634 -4.8768
        CHANNELS 3 Zrotation Xrotation Yrotation
        JOINT rShldr
        {
          OFFSET -8.77824 -1.95073 1.46304
          CHANNELS 3 Zrotation Xrotation Yrotation
          JOINT rForeArm
          {
            OFFSET -28.1742 -1.7115 0.48768
            CHANNELS 3 Zrotation Xrotation Yrotation
            JOINT rHand
            {
              OFFSET -22.5879 0.773209 7.07136
              CHANNELS 3 Zrotation Xrotation Yrotation
              JOINT rThumb1
              {
                OFFSET -1.2192 -0.487915 3.41376
                CHANNELS 3 Zrotation Xrotation Yrotation
                JOINT rThumb2
                {
                  OFFSET -3.37035 -0.52449 3.41376
                  CHANNELS 3 Zrotation Xrotation Yrotation
                  End Site
                  {
                    OFFSET -1.78271 -1.18214 1.43049
                  }
                }
              }
              JOINT rIndex1
              {
                OFFSET -7.75947 0.938293 5.60832
                CHANNELS 3 Zrotation Xrotation Yrotation
                JOINT rIndex2
                {
                  OFFSET -2.54057 -0.884171 1.56538
                  CHANNELS 3 Zrotation Xrotation Yrotation
                  End Site
                  {
                    OFFSET -1.62519 -0.234802 1.16502
                  }
                }
              }
              JOINT rMid1
              {
                OFFSET -8.24714 1.18213 3.41376
                CHANNELS 3 Zrotation Xrotation Yrotation
                JOINT rMid2
                {
                  OFFSET -3.10165 -0.590103 1.0647
                  CHANNELS 3 Zrotation Xrotation Yrotation
                  End Site
                  {
                    OFFSET -2.48547 -0.328903 0.83742
                  }
                }
              }
              JOINT rRing1
              {
                OFFSET -8.82822 0.546677 1.51678
                CHANNELS 3 Zrotation Xrotation Yrotation
                JOINT rRing2
                {
                  OFFSET -2.60934 -0.819778 -0.0198488
                  CHANNELS 3 Zrotation Xrotation Yrotation
                  End Site
                  {
                    OFFSET -2.33842 -0.294052 0.168128
                  }
                }
              }
              JOINT rPinky1
              {
                OFFSET -8.27202 -0.0477905 -0.4584
                CHANNELS 3 Zrotation Xrotation Yrotation
                JOINT rPinky2
                {
                  OFFSET -1.82734 -0.647385 -0.700984
                  CHANNELS 3 Zrotation Xrotation Yrotation
                  End Site
                  {
                    OFFSET -1.69225 -0.51767 -0.607171
                  }
                }
              }
            }
          }
        }
      }
      JOINT lCollar
      {
        OFFSET 2.68224 19.2634 -4.8768
        CHANNELS 3 Zrotation Xrotation Yrotation
        JOINT lShldr
        {
          OFFSET 8.77824 -1.95073 1.46304
          CHANNELS 3 Zrotation Xrotation Yrotation
          JOINT lForeArm
          {
            OFFSET 28.1742 -1.7115 0.48768
            CHANNELS 3 Zrotation Xrotation Yrotation
            JOINT lHand
            {
              OFFSET 22.5879 0.773209 7.07136
              CHANNELS 3 Zrotation Xrotation Yrotation
              JOINT lThumb1
              {
                OFFSET 1.2192 -0.487915 3.41376
                CHANNELS 3 Zrotation Xrotation Yrotation
                JOINT lThumb2
                {
                  OFFSET 3.37035 -0.52449 3.41376
                  CHANNELS 3 Zrotation Xrotation Yrotation
                  End Site
                  {
                    OFFSET 1.78271 -1.18214 1.43049
                  }
                }
              }
              JOINT lIndex1
              {
                OFFSET 7.75947 0.938293 5.60832
                CHANNELS 3 Zrotation Xrotation Yrotation
                JOINT lIndex2
                {
                  OFFSET 2.54057 -0.884171 1.56538
                  CHANNELS 3 Zrotation Xrotation Yrotation
                  End Site
                  {
                    OFFSET 1.62519 -0.234802 1.16502
                  }
                }
              }
              JOINT lMid1
              {
                OFFSET 8.24714 1.18213 3.41376
                CHANNELS 3 Zrotation Xrotation Yrotation
                JOINT lMid2
                {
                  OFFSET 3.10165 -0.590103 1.0647
                  CHANNELS 3 Zrotation Xrotation Yrotation
                  End Site
                  {
                    OFFSET 2.48547 -0.328903 0.83742
                  }
                }
              }
              JOINT lRing1
              {
                OFFSET 8.82822 0.546677 1.51678
                CHANNELS 3 Zrotation Xrotation Yrotation
                JOINT lRing2
                {
                  OFFSET 2.60934 -0.819778 -0.0198488
                  CHANNELS 3 Zrotation Xrotation Yrotation
                  End Site
                  {
                    OFFSET 2.33842 -0.294052 0.168128
                  }
                }
              }
              JOINT lPinky1
              {
                OFFSET 8.27202 -0.0477905 -0.4584
                CHANNELS 3 Zrotation Xrotation Yrotation
                JOINT lPinky2
                {
                  OFFSET 1.82734 -0.647385 -0.700984
                  CHANNELS 3 Zrotation Xrotation Yrotation
                  End Site
                  {
                    OFFSET 1.69225 -0.51767 -0.607171
                  }
                }
              }
            }
          }
        }
      }
    }
  }
  JOINT rButtock
  {
    OFFSET -8.77824 4.35084 1.2192
    CHANNELS 3 Zrotation Xrotation Yrotation
    JOINT rThigh
    {
      OFFSET 0 -1.70687 -2.19456
      CHANNELS 3 Zrotation Xrotation Yrotation
      JOINT rShin
      {
        OFFSET 0 -36.8199 0.73152
        CHANNELS 3 Zrotation Xrotation Yrotation
        JOINT rFoot
        {
          OFFSET 0.73152 -45.1104 -5.12064
          CHANNELS 3 Zrotation Xrotation Yrotation
          End Site
          {
            OFFSET -1.1221 -3.69964 12.103
          }
        }
      }
    }
  }
  JOINT lButtock
  {
    OFFSET 8.77824 4.35084 1.2192
    CHANNELS 3 Zrotation Xrotation Yrotation
    JOINT lThigh
    {
      OFFSET 0 -1.70687 -2.19456
      CHANNELS 3 Zrotation Xrotation Yrotation
      JOINT lShin
      {
        OFFSET 0 -36.8199 0.73152
        CHANNELS 3 Zrotation Xrotation Yrotation
        JOINT lFoot
        {
          OFFSET -0.73152 -45.1104 -5.12064
          CHANNELS 3 Zrotation Xrotation Yrotation
          End Site
          {
            OFFSET 1.1221 -3.69964 12.103
          }
        }
      }
    }
  }
}
MOTION
Frames:	5
Frame Time:	0.00833333
63.3138 69.7638 112.64 -175.077 -8.4226 548.34 2.04908 15.56 4.69029 0.624951 -13.6057 1.41175 -5.797 6.29009 -1.87828 14.6474 -42.4058 0.749731 -0.0 0.0 0.0 -0.0 0.0 0.0 9.66056e-14 -1.60013e-14 -2.36453e-13 19.8163 17.8549 32.3613 -21.788 -15.4426 43.2196 7.24663e-05 -0.599617 -0.0842642 -5.93694e-10 -7.7294e-09 7.42048e-10 -1.02857e-09 -1.33826e-08 1.28523e-09 -5.93694e-10 -7.7294e-09 7.42044e-10 7.73091 5.47488 0.417314 -5.937e-10 -7.7294e-09 7.42051e-10 2.90554 0.965183 0.102902 -5.9369e-10 -7.72941e-09 7.42051e-10 10.2786 0.731801 0.0259123 -5.93701e-10 -7.72942e-09 7.42057e-10 2.22167 -0.733487 -0.20892 9.65585e-14 -1.60031e-14 -2.36603e-13 -31.0797 7.39194 -22.8657 14.1828 -7.10358 -25.9212 0.531305 20.4828 -3.00509 1.55573e-09 2.6539e-09 2.72001e-10 2.6911e-09 4.58106e-09 4.43025e-10 1.55573e-09 2.6539e-09 2.7202e-10 -7.73091 5.47488 -0.417314 1.55573e-09 2.6539e-09 2.72006e-10 -2.90554 0.965183 -0.102902 1.55572e-09 2.6539e-09 2.71999e-10 -10.2786 0.731801 -0.0259123 1.55574e-09 2.6539e-09 2.71992e-10 -2.22167 -0.733487 0.20892 -2.03217e-16 0.0 -3.88251e-19 10.0715 -56.4864 8.83961 -1.68719 68.3309 2.52658 -8.84352 -16.6603 -19.7558 2.03217e-16 0.0 3.88251e-19 0.82352 -51.7969 -1.94188 1.98005 71.3156 -3.24946 16.4456 -22.795 28.3828
63.113 69.7871 113.033 -175.343 -8.0081 548.912 1.86803 15.3247 4.35761 0.756247 -13.7112 1.32039 -5.44863 6.11343 -1.60716 14.2227 -42.4945 1.07229 -0.0 0.0 0.0 -0.0 0.0 0.0 7.24895e-14 -3.18263e-15 -2.38638e-13 19.0218 16.2258 31.9444 -21.6334 -15.2161 42.811 -0.000650053 -1.14731 -0.161245 -8.10526e-10 1.69187e-09 7.35427e-10 -1.40411e-09 2.93687e-09 1.27374e-09 -8.10524e-10 1.69187e-09 7.35421e-10 7.73091 5.47488 0.417314 -8.10529e-10 1.69188e-09 7.35428e-10 2.90554 0.965183 0.102902 -8.1052e-10 1.69186e-09 7.35428e-10 10.2786 0.731801 0.0259123 -8.10533e-10 1.69185e-09 7.35434e-10 2.22167 -0.733487 -0.20892 7.25007e-14 -3.17834e-15 -2.3879e-13 -29.3458 7.53544 -24.0957 14.3197 -7.21625 -26.1979 0.404281 18.1776 -2.63884 1.69956e-09 3.28016e-09 2.59874e-10 2.93925e-09 5.66461e-09 4.22781e-10 1.69956e-09 3.28016e-09 2.5989e-10 -7.73091 5.47488 -0.417314 1.69956e-09 3.28017e-09 2.59877e-10 -2.90554 0.965183 -0.102902 1.69955e-09 3.28017e-09 2.59869e-10 -10.2786 0.731801 -0.0259123 1.69957e-09 3.28016e-09 2.59861e-10 -2.22167 -0.733487 0.20892 -2.03217e-16 0.0 -3.88251e-19 10.1933 -57.2702 9.57658 -1.67631 68.1995 2.50036 -8.64152 -16.4763 -19.4517 2.03217e-16 0.0 3.88251e-19 0.0308418 -52.3794 -2.42829 1.94064 71.055 -3.20746 16.4669 -22.561 28.5842
62.942 69.8474 113.401 -175.513 -7.518 549.37 1.68304 15.0913 4.04657 0.916281 -13.7983 1.23885 -5.0991 5.94794 -1.34816 13.8149 -42.5352 1.3744 -0.0 0.0 0.0 -0.0 0.0 0.0 5.17767e-14 1.16239e-14 -2.30388e-13 18.18 14.7111 31.5631 -21.4655 -14.9741 42.371 -0.00299207 -1.71437 -0.240996 -9.89646e-10 1.01644e-08 7.15447e-10 -1.71434e-09 1.76145e-08 1.23895e-09 -9.89641e-10 1.01644e-08 7.15438e-10 7.73091 5.47488 0.417314 -9.89645e-10 1.01644e-08 7.15445e-10 2.90554 0.965183 0.102902 -9.89637e-10 1.01644e-08 7.15447e-10 10.2786 0.731801 0.0259123 -9.89653e-10 1.01643e-08 7.15452e-10 2.22167 -0.733487 -0.20892 5.18498e-14 1.16343e-14 -2.30541e-13 -27.7191 7.6897 -25.1293 14.4739 -7.3437 -26.5116 0.308059 15.8951 -2.28987 1.75297e-09 3.65133e-09 2.60622e-10 3.03158e-09 6.30748e-09 4.25946e-10 1.75297e-09 3.65133e-09 2.60636e-10 -7.73091 5.47488 -0.417314 1.75297e-09 3.65135e-09 2.60623e-10 -2.90554 0.965183 -0.102902 1.75297e-09 3.65135e-09 2.60615e-10 -10.2786 0.731801 -0.0259123 1.75298e-09 3.65133e-09 2.60607e-10 -2.22167 -0.733487 0.20892 -2.03217e-16 0.0 -3.88251e-19 10.3786 -57.8886 10.3845 -1.65313 67.9623 2.46097 -8.44298 -16.2916 -19.1617 2.03217e-16 0.0 3.88251e-19 -0.686927 -52.818 -2.83488 1.88897 70.6997 -3.15151 16.4698 -22.3348 28.7585
62.7533 69.9229 113.707 -175.682 -7.0272 549.711 1.56244 14.9549 3.81409 1.06223 -13.8163 1.18067 -4.83056 5.84399 -1.12183 13.4871 -42.5866 1.65978 -0.0 0.0 0.0 -0.0 0.0 0.0 4.24597e-14 2.06672e-14 -2.11407e-13 17.3738 13.2563 31.1545 -21.2836 -14.7171 41.8949 -0.00508067 -2.03479 -0.286093 -8.83055e-10 1.35405e-08 6.7596e-10 -1.53006e-09 2.34659e-08 1.17026e-09 -8.83049e-10 1.35405e-08 6.75951e-10 7.73091 5.47488 0.417314 -8.83053e-10 1.35406e-08 6.75957e-10 2.90554 0.965183 0.102902 -8.83045e-10 1.35405e-08 6.75959e-10 10.2786 0.731801 0.0259123 -8.83062e-10 1.35405e-08 6.75963e-10 2.22167 -0.733487 -0.20892 4.25731e-14 2.06806e-14 -2.11557e-13 -26.2957 7.72336 -26.0708 14.6165 -7.46286 -26.803 0.257595 14.301 -2.05312 1.5862e-09 3.30869e-09 1.89701e-10 2.74241e-09 5.71494e-09 3.07296e-10 1.5862e-09 3.30869e-09 1.89714e-10 -7.73091 5.47488 -0.417314 1.5862e-09 3.30871e-09 1.89701e-10 -2.90554 0.965183 -0.102902 1.5862e-09 3.30871e-09 1.89693e-10 -10.2786 0.731801 -0.0259123 1.58621e-09 3.30869e-09 1.89685e-10 -2.22167 -0.733487 0.20892 -2.03217e-16 0.0 -3.88251e-19 10.6371 -58.2003 11.2113 -1.61606 67.6048 2.40766 -8.26228 -16.0973 -18.9258 2.03217e-16 0.0 3.88251e-19 -1.18333 -53.0005 -3.03351 1.82937 70.276 -3.08836 16.4904 -22.1548 28.9329
62.5734 70.0224 113.92 -175.832 -6.4604 549.849 1.51661 14.9681 3.69673 1.18884 -13.7218 1.15583 -4.65854 5.84189 -0.929443 13.2665 -42.7173 1.93796 -0.0 0.0 0.0 -0.0 0.0 0.0 5.45589e-14 3.13777e-14 -1.71513e-13 16.6174 11.7986 30.6786 -21.08 -14.4351 41.3664 -0.00531983 -2.02934 -0.285331 -3.32451e-10 9.10428e-09 6.25536e-10 -5.77147e-10 1.5787e-08 1.08262e-09 -3.32445e-10 9.10427e-09 6.25526e-10 7.73091 5.47488 0.417314 -3.3245e-10 9.1043e-09 6.2553e-10 2.90554 0.965183 0.102902 -3.32441e-10 9.10428e-09 6.25532e-10 10.2786 0.731801 0.0259123 -3.32457e-10 9.10426e-09 6.25537e-10 2.22167 -0.733487 -0.20892 5.46834e-14 3.13892e-14 -1.71651e-13 -25.1312 7.53423 -26.9392 14.7487 -7.57487 -27.0726 0.242664 13.7212 -1.9683 1.10014e-09 1.91803e-09 6.96977e-12 1.89975e-09 3.30771e-09 -1.56274e-12 1.10014e-09 1.91803e-09 6.98287e-12 -7.73091 5.47488 -0.417314 1.10014e-09 1.91805e-09 6.97006e-12 -2.90554 0.965183 -0.102902 1.10014e-09 1.91805e-09 6.96275e-12 -10.2786 0.731801 -0.0259123 1.10015e-09 1.91803e-09 6.95573e-12 -2.22167 -0.733487 0.20892 -2.03217e-16 0.0 -3.88251e-19 10.9919 -58.1197 12.0864 -1.5653 67.1129 2.34115 -8.11766 -15.8907 -18.7922 2.03217e-16 0.0 3.88251e-19 -1.39992 -52.8637 -2.9662 1.76461 69.7975 -3.02308 16.5651 -22.0264 29.1575
